<svg xmlns="http://www.w3.org/2000/svg" width="100" height="80"><polygon fill="#fcfcfc" points="0,0,100,0,100,80,0,80"/>

<line x1="0" y1="0" x2="10000" y2="0" style="stroke:black;stroke-width:3;stroke-opacity:0.5"/>
<line x1="0" y1="0" x2="0" y2="10000" style="stroke:black;stroke-width:3;stroke-opacity:0.5"/>
<line x1="0" y1="10" x2="10000" y2="10" style="stroke:black;stroke-width:3;stroke-opacity:0.5"/>
<line x1="10" y1="0" x2="10" y2="10000" style="stroke:black;stroke-width:3;stroke-opacity:0.5"/>
<line x1="0" y1="20" x2="10000" y2="20" style="stroke:black;stroke-width:3;stroke-opacity:0.5"/>
<line x1="20" y1="0" x2="20" y2="10000" style="stroke:black;stroke-width:3;stroke-opacity:0.5"/>
<line x1="0" y1="30" x2="10000" y2="30" style="stroke:black;stroke-width:3;stroke-opacity:0.5"/>
<line x1="30" y1="0" x2="30" y2="10000" style="stroke:black;stroke-width:3;stroke-opacity:0.5"/>
<line x1="0" y1="40" x2="10000" y2="40" style="stroke:black;stroke-width:3;stroke-opacity:0.5"/>
<line x1="40" y1="0" x2="40" y2="10000" style="stroke:black;stroke-width:3;stroke-opacity:0.5"/>
<line x1="0" y1="50" x2="10000" y2="50" style="stroke:black;stroke-width:3;stroke-opacity:0.5"/>
<line x1="50" y1="0" x2="50" y2="10000" style="stroke:black;stroke-width:3;stroke-opacity:0.5"/>
<line x1="0" y1="60" x2="10000" y2="60" style="stroke:black;stroke-width:3;stroke-opacity:0.5"/>
<line x1="60" y1="0" x2="60" y2="10000" style="stroke:black;stroke-width:3;stroke-opacity:0.5"/>
<line x1="0" y1="70" x2="10000" y2="70" style="stroke:black;stroke-width:3;stroke-opacity:0.5"/>
<line x1="70" y1="0" x2="70" y2="10000" style="stroke:black;stroke-width:3;stroke-opacity:0.5"/>
<line x1="0" y1="80" x2="10000" y2="80" style="stroke:black;stroke-width:3;stroke-opacity:0.5"/>
<line x1="80" y1="0" x2="80" y2="10000" style="stroke:black;stroke-width:3;stroke-opacity:0.5"/>
<line x1="0" y1="90" x2="10000" y2="90" style="stroke:black;stroke-width:3;stroke-opacity:0.5"/>
<line x1="90" y1="0" x2="90" y2="10000" style="stroke:black;stroke-width:3;stroke-opacity:0.5"/>
<line x1="0" y1="100" x2="10000" y2="100" style="stroke:black;stroke-width:3;stroke-opacity:0.5"/>
<line x1="100" y1="0" x2="100" y2="10000" style="stroke:black;stroke-width:3;stroke-opacity:0.5"/>
<polygon fill="#84c1ff" points="60,80,100,80,100,70,60,70"/>
<polygon fill="#b15bff" points="0,40,100,40,100,30,0,30"/>
<polygon fill="#b15bff" points="0,40,10,40,10,0,0,0"/>
<polygon fill="#84c1ff" points="60,80,70,80,70,0,60,0"/>
<polygon fill="#28ff28" points="30,80,40,80,40,0,30,0"/>
</svg>